#!OML:ASF H:\Terrain\Walking\May29\JustinRory\Justin.ASF
:FULLY-SPECIFIED
:DEGREES
1852
root 10.0216 17.6861 4.57665 -179.48 -34.0948 183.69
lowerback 8.3341 -3.8847 -1.27923
upperback 2.30518 -5.36288 2.15363
thorax -1.94328 -2.73868 3.4583
lowerneck -3.6297 -13.5197 -17.2607
upperneck 5.74794 -18.3181 14.0369
head 5.20658 -8.9854 5.61451
rclavicle 2.75689e-014 4.47266e-015
rhumerus -33.9566 -19.0125 -74.7429
rradius 28.4984
rwrist -3.93659
rhand -20.5167 21.298
rfingers 7.12502
rthumb 5.84097 -8.60145
lclavicle 2.75689e-014 4.47266e-015
lhumerus -28.3295 13.1832 78.5005
lradius 43.1598
lwrist -3.47361
lhand -3.01977 41.5926
lfingers 7.12502
lthumb 22.695 70.278
rfemur -23.1182 -1.98146 19.0718
rtibia 24.3169
rfoot -0.0684057 -5.53819
rtoes 1.32427
lfemur 7.97315 3.75869 -11.008
ltibia 30.9873
lfoot -8.82224 2.88143
ltoes -27.7458
1853
root 10.0142 17.6898 4.52889 -179.777 -34.0557 183.874
lowerback 8.40299 -3.77894 -0.998127
upperback 2.40278 -5.20745 2.15258
thorax -1.91588 -2.66591 3.28841
lowerneck -3.65886 -13.6568 -17.0168
upperneck 5.82794 -18.4894 13.7395
head 5.20866 -9.0709 5.46268
rclavicle 7.9079e-014 -1.68967e-014
rhumerus -33.8422 -18.5813 -75.0619
rradius 28.8942
rwrist -5.91178
rhand -18.8727 20.8127
rfingers 7.12502
rthumb 7.42802 -9.03688
lclavicle 7.9079e-014 -1.68967e-014
lhumerus -27.7293 12.4402 78.846
lradius 44.7442
lwrist -2.39903
lhand -4.10771 42.1003
lfingers 7.12502
lthumb 21.6505 70.9098
rfemur -22.6627 -2.11855 19.353
rtibia 24.0496
rfoot 0.134752 -5.40109
rtoes 1.35336
lfemur 7.83751 3.79259 -10.6184
ltibia 31.762
lfoot -8.47289 2.09814
ltoes -28.059
1854
root 10.0149 17.6963 4.48304 -179.777 -34.2357 183.834
lowerback 8.44836 -3.83805 -1.04228
upperback 2.35415 -5.28745 2.24949
thorax -1.9729 -2.70502 3.42633
lowerneck -3.74145 -13.6794 -16.8088
upperneck 5.87577 -18.4476 13.1471
head 5.14985 -9.05899 5.25414
rclavicle 3.14701e-014 -4.96962e-017
rhumerus -33.5397 -17.5745 -75.3041
rradius 29.0766
rwrist -7.25339
rhand -14.0989 18.8145
rfingers 7.12502
rthumb 12.0337 -10.8196
lclavicle 3.14701e-014 -4.96962e-017
lhumerus -27.5337 12.1295 79.2485
lradius 46.4913
lwrist -1.06417
lhand -5.5206 42.5184
lfingers 7.12502
lthumb 20.2931 71.4782
rfemur -22.465 -2.08299 19.3679
rtibia 23.9905
rfoot -0.0997459 -5.50665
rtoes 1.6568
lfemur 7.48289 3.67803 -10.3979
ltibia 32.3634
lfoot -7.84683 1.26037
ltoes -25.8667
1855
root 10.0142 17.7051 4.43482 -179.632 -34.2953 183.422
lowerback 8.62015 -3.81557 -1.27935
upperback 2.24848 -5.27019 2.07841
thorax -2.17329 -2.68662 3.39944
lowerneck -3.5198 -13.5942 -16.7929
upperneck 5.92301 -18.3909 13.2382
head 5.12744 -9.03879 5.30216
rclavicle -5.71879e-014 8.84592e-015
rhumerus -33.4962 -17.282 -75.4813
rradius 29.1937
rwrist -7.90001
rhand -11.3742 18.0802
rfingers 7.12502
rthumb 14.66 -11.3816
lclavicle -5.71879e-014 8.84592e-015
lhumerus -27.4492 11.9628 79.1295
lradius 47.9658
lwrist -0.94096
lhand -5.4272 41.9996
lfingers 7.12502
lthumb 20.3829 70.9498
rfemur -22.2194 -1.92833 19.0427
rtibia 24.0323
rfoot -0.543596 -5.63584
rtoes 2.26553
lfemur 7.23439 3.78926 -10.474
ltibia 32.8996
lfoot -6.84085 0.821554
ltoes -24.1462
1856
root 10.0025 17.7142 4.38253 -179.631 -34.2903 183.138
lowerback 8.67545 -3.75248 -1.3418
upperback 2.27668 -5.19378 1.91158
thorax -2.18988 -2.64684 3.25787
lowerneck -3.47831 -13.566 -17.0435
upperneck 6.114 -18.427 13.6779
head 5.2531 -9.05123 5.46289
rclavicle 9.82742e-014 -4.67144e-015
rhumerus -33.4229 -17.5062 -75.5014
rradius 29.5608
rwrist -7.607
rhand -12.5064 18.4061
rfingers 7.12502
rthumb 13.569 -11.1317
lclavicle 9.82742e-014 -4.67144e-015
lhumerus -27.2168 12.0348 78.8431
lradius 49.342
lwrist -1.7447
lhand -4.09212 40.6402
lfingers 7.12502
lthumb 21.6655 69.448
rfemur -21.8568 -2.09631 18.8765
rtibia 24.0478
rfoot -0.732175 -5.54328
rtoes 2.33017
lfemur 7.14868 4.00689 -10.4429
ltibia 33.4245
lfoot -5.94107 0.141067
ltoes -24.4158
1857
root 9.99104 17.7209 4.33739 -179.756 -34.303 183.369
lowerback 8.48911 -3.75879 -1.10752
upperback 2.34886 -5.18565 2.00085
thorax -2.0252 -2.6492 3.20041
lowerneck -3.60772 -13.6054 -17.0897
upperneck 6.28184 -18.4683 13.6166
head 5.33024 -9.06773 5.43173
rclavicle 8.89437e-014 -2.11706e-014
rhumerus -33.1512 -17.46 -75.4606
rradius 29.9219
rwrist -7.02392
rhand -13.3798 19.0007
rfingers 7.12502
rthumb 12.7271 -10.5914
lclavicle 8.89437e-014 -2.11706e-014
lhumerus -27.0438 12.0702 78.8481
lradius 51.052
lwrist -1.85015
lhand -3.59171 39.8836
lfingers 7.12502
lthumb 22.146 68.6351
rfemur -21.6617 -2.27453 19.1751
rtibia 23.9803
rfoot -0.760462 -5.42255
rtoes 2.24609
lfemur 6.84249 4.13686 -9.99564
ltibia 33.9749
lfoot -5.2549 -0.840977
ltoes -23.95
1858
root 9.98371 17.7322 4.29925 -179.744 -34.2515 183.473
lowerback 8.35769 -3.67161 -0.954305
upperback 2.36338 -5.05673 1.99117
thorax -1.95968 -2.58592 3.08244
lowerneck -3.66511 -13.7072 -16.6125
upperneck 6.19306 -18.5679 13.2166
head 5.24143 -9.1166 5.23028
rclavicle -1.39025e-014 -9.79014e-015
rhumerus -32.8825 -17.1672 -75.6815
rradius 30.0112
rwrist -7.55335
rhand -11.8312 19.9016
rfingers 7.12502
rthumb 14.2197 -9.5916
lclavicle -1.39025e-014 -9.79014e-015
lhumerus -26.7905 11.6637 78.9669
lradius 52.6297
lwrist -1.55094
lhand -3.49811 39.9166
lfingers 7.12502
lthumb 22.2358 68.6575
rfemur -21.5467 -2.12854 19.3259
rtibia 23.8318
rfoot -0.845357 -5.42931
rtoes 2.17389
lfemur 6.39196 4.1545 -9.74941
ltibia 34.5824
lfoot -4.50324 -1.27694
ltoes -22.5254
1859
root 9.97873 17.7473 4.25997 -179.693 -34.2707 183.575
lowerback 8.26411 -3.57071 -0.786251
upperback 2.33703 -4.9061 1.98208
thorax -1.95892 -2.50956 2.96019
lowerneck -3.59344 -13.7422 -16.5638
upperneck 6.07972 -18.6308 13.3138
head 5.20965 -9.14687 5.25217
rclavicle -8.45208e-014 3.65764e-014
rhumerus -32.5752 -16.9337 -75.8411
rradius 29.9398
rwrist -8.04383
rhand -10.448 20.6549
rfingers 7.12502
rthumb 15.5522 -8.73972
lclavicle -8.45208e-014 3.65764e-014
lhumerus -26.4744 11.2354 79.1295
lradius 54.1181
lwrist -1.3679
lhand -4.52603 39.5717
lfingers 7.12502
lthumb 21.2487 68.4269
rfemur -21.4335 -1.81559 19.4432
rtibia 23.6511
rfoot -0.794385 -5.75207
rtoes 2.14862
lfemur 5.88622 4.12188 -9.49785
ltibia 35.2151
lfoot -3.54815 -1.56746
ltoes -22.0045
1860
root 9.97337 17.7569 4.2236 -179.677 -34.2664 183.783
lowerback 8.16868 -3.56259 -0.635303
upperback 2.2446 -4.87767 2.15428
thorax -2.00061 -2.4945 3.04843
lowerneck -3.31861 -13.6518 -16.9729
upperneck 6.02477 -18.5361 13.4607
head 5.18676 -9.11492 5.38523
rclavicle -3.57253e-014 5.96354e-016
rhumerus -32.3851 -16.2646 -75.8103
rradius 30.2583
rwrist -8.13846
rhand -10.1606 20.2708
rfingers 7.12502
rthumb 15.829 -9.1021
lclavicle -3.57253e-014 5.96354e-016
lhumerus -26.4919 11.1093 79.4004
lradius 55.8432
lwrist -0.923868
lhand -4.69796 39.5814
lfingers 7.12502
lthumb 21.0836 68.4551
rfemur -21.3434 -1.85129 19.6918
rtibia 23.4591
rfoot -0.757305 -5.81005
rtoes 2.97796
lfemur 5.4058 4.22584 -9.11735
ltibia 35.7553
lfoot -2.70899 -2.18515
ltoes -23.5521
1861
root 9.96029 17.7632 4.18858 -179.635 -34.1207 183.829
lowerback 8.07997 -3.54825 -0.531795
upperback 2.18092 -4.84709 2.26056
thorax -2.01829 -2.47882 3.09405
lowerneck -3.26403 -13.5607 -17.3303
upperneck 6.12566 -18.4116 13.4911
head 5.22612 -9.06161 5.46133
rclavicle -6.21786e-014 2.68266e-014
rhumerus -32.2181 -15.1958 -75.9713
rradius 30.9043
rwrist -8.748
rhand -10.1207 19.1661
rfingers 7.12502
rthumb 15.8675 -10.2037
lclavicle -6.21786e-014 2.68266e-014
lhumerus -26.4406 11.2466 79.644
lradius 57.1821
lwrist -0.522108
lhand -5.07325 38.6887
lfingers 7.12502
lthumb 20.723 67.6023
rfemur -21.214 -2.05771 19.8348
rtibia 23.2703
rfoot -0.711867 -5.51862
rtoes 2.96118
lfemur 5.10176 4.38833 -8.94678
ltibia 36.1817
lfoot -2.15481 -2.7872
ltoes -25.0127
